# xmcd CD database file
#
# Track frame offsets:
#	150
#	11825
#	21845
#	33215
#	49790
#	68685
#	80045
#	96260
#	107442
#	119562
#	140445
#	153242
#
# Disc length: 2194 seconds
#
# Revision: 0
# Processed by: cddbd v1.5.1PL2 Copyright (c) Steve Scherf et al.
# Submitted via: CDex 1.51
#
DISCID=9708900c
DTITLE=EARL HINES - FATHA
DYEAR=1964
DGENRE=Jazz
TTITLE0=01 FRANKIE AND JONNIE
TTITLE1=02 THE GIRL FROM IPANEMA
TTITLE2=03 BELIEVE IT BELOVED
TTITLE3=04 LOUISE
TTITLE4=05 ST.JAMES INFIRMARY BLUES
TTITLE5=06 AVALON
TTITLE6=07 BREEZIN' ALONG WITH THE BREEZE
TTITLE7=08 FRENESI
TTITLE8=09 BROADWAY
TTITLE9=10 TRAV'LIN ALL ALONE
TTITLE10=11 AT SUNDOWN
TTITLE11=12 RUNNIN' WILD
EXTD=YEAR: 1964/11/9-10
EXTT0=
EXTT1=
EXTT2=
EXTT3=
EXTT4=
EXTT5=
EXTT6=
EXTT7=
EXTT8=
EXTT9=
EXTT10=
EXTT11=
PLAYORDER=
